<svg width="22" height="24" viewBox="0 0 22 24" fill="none" xmlns="http://www.w3.org/2000/svg">
    <path d="M16 12C12.687 12 10 14.687 10 18C10 21.313 12.687 24 16 24C19.313 24 22 21.313 22 18C22 14.687 19.313 12 16 12ZM16.5 20.474V21H16V20.501C15.482 20.492 14.947 20.369 14.5 20.138L14.728 19.316C15.206 19.502 15.842 19.699 16.34 19.586C16.914 19.456 17.032 18.865 16.397 18.581C15.932 18.364 14.508 18.179 14.508 16.959C14.508 16.278 15.028 15.667 16 15.534V15H16.5V15.509C16.862 15.519 17.268 15.582 17.721 15.719L17.54 16.543C17.156 16.408 16.732 16.286 16.318 16.311C15.574 16.354 15.508 16.999 16.028 17.269C16.884 17.671 18 17.969 18 19.042C18.001 19.9 17.328 20.357 16.5 20.474ZM18.124 10.295C19.256 10.072 20.286 9.669 21 9.098V9.75C21 10.249 20.614 10.705 19.993 11.078C19.412 10.741 18.785 10.478 18.124 10.295ZM16 4.5C18.673 4.5 21 3.493 21 2.25C21 1.007 18.673 0 16 0C13.328 0 11 1.007 11 2.25C11 3.493 13.328 4.5 16 4.5ZM16.093 2.491C15.794 2.401 14.879 2.325 14.879 1.816C14.879 1.532 15.213 1.279 15.837 1.223V1H16.158V1.211C16.392 1.216 16.652 1.241 16.942 1.301L16.826 1.643C16.605 1.592 16.359 1.544 16.118 1.544L16.046 1.545C15.564 1.565 15.525 1.832 15.858 1.944C16.405 2.113 17.125 2.236 17.125 2.684C17.125 3.041 16.691 3.232 16.158 3.28V3.5H15.837V3.292C15.509 3.289 15.161 3.236 14.875 3.14L15.022 2.797C15.266 2.86 15.574 2.923 15.85 2.923L16.058 2.909C16.427 2.856 16.501 2.609 16.093 2.491ZM5 15.5C6.445 15.5 7.775 15.199 8.705 14.732C9.016 14.042 9.419 13.403 9.903 12.833C9.452 11.79 7.364 11 5 11C2.328 11 0 12.007 0 13.25C0 14.493 2.328 15.5 5 15.5ZM5.093 13.491C4.794 13.401 3.879 13.325 3.879 12.816C3.879 12.532 4.214 12.279 4.837 12.223V12H5.158V12.211C5.392 12.216 5.652 12.241 5.942 12.301L5.825 12.643C5.605 12.592 5.359 12.544 5.118 12.544L5.046 12.545C4.564 12.565 4.526 12.832 4.858 12.944C5.405 13.113 6.125 13.236 6.125 13.684C6.125 14.041 5.691 14.232 5.158 14.28V14.5H4.837V14.292C4.508 14.289 4.161 14.236 3.875 14.14L4.022 13.797C4.266 13.86 4.574 13.923 4.85 13.923L5.058 13.909C5.426 13.856 5.501 13.609 5.093 13.491ZM9.096 22.022C8.177 22.612 6.656 23 5 23C2.328 23 0 21.993 0 20.75V20.098C1.146 21.016 3.109 21.5 5 21.5C6.236 21.5 7.499 21.289 8.549 20.889C8.702 21.283 8.885 21.662 9.096 22.022ZM0 18.25V17.599C1.146 18.516 3.109 19 5 19C6.039 19 7.094 18.849 8.028 18.565C8.061 19.034 8.135 19.491 8.246 19.935C7.358 20.282 6.222 20.5 5 20.5C2.328 20.5 0 19.493 0 18.25ZM0 15.75V15.098C1.146 16.016 3.109 16.5 5 16.5C6.127 16.5 7.275 16.324 8.266 15.991C8.138 16.484 8.056 16.993 8.025 17.517C7.171 17.815 6.122 18 5 18C2.328 18 0 16.993 0 15.75ZM11 4.75V4.098C12.146 5.016 14.109 5.5 16 5.5C17.892 5.5 19.854 5.016 21 4.098V4.75C21 5.993 18.673 7 16 7C13.328 7 11 5.993 11 4.75ZM11 9.75V9.098C11.713 9.669 12.744 10.072 13.876 10.295C13.215 10.478 12.589 10.741 12.008 11.078C11.386 10.705 11 10.249 11 9.75ZM11 7.25V6.599C12.146 7.516 14.109 8 16 8C17.892 8 19.854 7.516 21 6.599V7.25C21 8.493 18.673 9.5 16 9.5C13.328 9.5 11 8.493 11 7.25Z" fill="black"/>
</svg>
