<svg width="24" height="24" viewBox="0 0 24 24" fill="none" xmlns="http://www.w3.org/2000/svg">
    <path d="M18.625 19.46C18.361 21.156 17.655 22.707 16.525 24C16.46 23.539 16.271 23.092 16.092 22.734C15.683 22.95 15.193 23.064 14.764 23.064L14.499 23.048C15.698 21.798 16.29 20.504 16.464 18.778C16.745 18.857 17.087 18.898 17.517 18.898C17.932 19.182 18.095 19.358 18.625 19.46ZM23.5 23.049C22.303 21.801 21.718 20.5 21.543 18.778C21.26 18.857 20.918 18.9 20.482 18.9C20.068 19.185 19.895 19.361 19.376 19.461C19.64 21.158 20.346 22.708 21.475 24.001C21.54 23.54 21.729 23.093 21.908 22.735C22.418 23.004 23.039 23.107 23.5 23.049ZM18.508 18.22C17.804 17.726 17.956 17.773 17.085 17.776H17.083C16.721 17.776 16.398 17.551 16.289 17.219C16.022 16.422 16.113 16.546 15.41 16.056C15.108 15.848 14.992 15.479 15.103 15.156C15.376 14.363 15.376 14.515 15.103 13.718C14.994 13.398 15.105 13.027 15.41 12.818C16.113 12.33 16.021 12.453 16.289 11.655C16.398 11.322 16.721 11.098 17.083 11.098H17.085C17.955 11.1 17.803 11.15 18.508 10.654C18.654 10.552 18.826 10.5 19 10.5C19.174 10.5 19.346 10.552 19.492 10.654C20.196 11.149 20.044 11.101 20.915 11.098H20.916C21.279 11.098 21.602 11.322 21.713 11.655C21.979 12.451 21.885 12.328 22.59 12.818C22.813 12.971 22.938 13.215 22.938 13.468L22.896 13.718C22.624 14.511 22.624 14.359 22.896 15.156C23.007 15.473 22.896 15.846 22.59 16.056C21.885 16.545 21.979 16.422 21.713 17.219C21.508 17.833 21.057 17.774 20.533 17.774C20.07 17.774 20.068 17.816 19.492 18.22C19.199 18.427 18.801 18.427 18.508 18.22ZM19 16.406C20.088 16.406 20.969 15.524 20.969 14.437C20.969 13.35 20.088 12.468 19 12.468C17.912 12.468 17.031 13.349 17.031 14.437C17.031 15.524 17.912 16.406 19 16.406ZM14.326 17.739C12.651 18.797 10.765 19.986 10.374 20.232C10.331 19.46 10.045 18.74 9.546 18.148C9.488 18.074 3.733 10.748 2.324 8.944C1.215 7.524 2.264 6.01 3.554 6.01C5.248 6.01 5.923 8.217 4.448 9.173L5.611 10.659L13.664 6.108C15.06 5.076 15.454 3.17 14.578 1.674C13.973 0.642 12.852 0 11.654 0C11.179 0 10.718 0.098 10.281 0.292L2.017 4.519C0.716 5.143 0 6.365 0 7.666C0 8.482 0.282 9.329 0.877 10.078C2.321 11.893 8.138 19.331 8.196 19.406C9.058 20.553 8.213 22.159 6.82 22.159C5.831 22.159 5.304 21.454 5.153 20.851C4.977 20.146 5.222 19.444 5.926 18.993L4.785 17.535C3.93 18.137 3.385 19.05 3.278 20.071C3.05 22.245 4.782 24 6.835 24C7.465 24 8.09 23.826 8.642 23.498L14.127 20.04C14.391 19.625 14.656 18.609 14.326 17.739ZM11.007 1.984C11.21 1.889 11.438 1.839 11.666 1.839C12.243 1.839 12.748 2.144 13.015 2.655C13.353 3.3 13.259 4.245 12.421 4.726L7.114 7.732C7.114 6.541 6.533 5.448 5.544 4.78L11.007 1.984ZM12.994 8.251L14.719 10.368C15.067 9.843 15.577 9.447 16.179 9.247L14.617 7.331L12.994 8.251ZM10.108 16.294L12.979 14.666L12.346 13.841L9.483 15.502L10.108 16.294ZM11.95 9.307L6.938 12.25L7.562 13.042L12.588 10.091L11.95 9.307ZM13.236 10.904L8.201 13.869L8.825 14.661L13.874 11.687L13.236 10.904Z" fill="black"/>
</svg>
