<svg width="24" height="16" viewBox="0 0 24 16" fill="none" xmlns="http://www.w3.org/2000/svg">
    <path d="M22 3H3V14H2V2H22V3ZM20 1H1V12H0V0H20V1ZM14 7C12.344 7 11 8.344 11 10C11 11.656 12.344 13 14 13C15.656 13 17 11.656 17 10C17 8.344 15.656 7 14 7ZM14.15 11.484V11.799H13.85V11.5C13.539 11.495 13.218 11.421 12.952 11.283L13.087 10.79C13.374 10.9 13.756 11.019 14.055 10.952C14.4 10.874 14.47 10.519 14.089 10.348C13.81 10.219 12.956 10.106 12.956 9.375C12.956 8.966 13.268 8.6 13.851 8.52V8.201H14.152V8.506C14.369 8.512 14.613 8.549 14.884 8.632L14.776 9.125C14.546 9.045 14.291 8.971 14.043 8.986C13.597 9.012 13.557 9.399 13.869 9.561C14.383 9.803 15.051 9.981 15.051 10.624C15.051 11.14 14.647 11.415 14.15 11.484ZM4 4V16H24V4H4ZM22 12.018C21.041 12.438 20.605 13.04 20.186 14H7.814C7.395 13.041 6.959 12.438 6 12.018V7.982C6.959 7.562 7.395 6.96 7.814 6H20.185C20.605 6.959 21.04 7.562 21.999 7.982V12.018H22Z" fill="black"/>
</svg>
